<?xml version="1.0" encoding="UTF-8" standalone="no"?>
<!-- Created with Inkscape (http://www.inkscape.org/) -->
<svg xmlns:dc="http://purl.org/dc/elements/1.1/" xmlns:cc="http://creativecommons.org/ns#" xmlns:rdf="http://www.w3.org/1999/02/22-rdf-syntax-ns#" xmlns:svg="http://www.w3.org/2000/svg" xmlns="http://www.w3.org/2000/svg" xmlns:sodipodi="http://sodipodi.sourceforge.net/DTD/sodipodi-0.dtd" xmlns:inkscape="http://www.inkscape.org/namespaces/inkscape" id="svg7688" version="1.1" inkscape:version="0.48.1 " width="613.7875" height="545.075" xml:space="preserve" sodipodi:docname="bc.pdf"><metadata id="metadata7694"><rdf:RDF><cc:Work rdf:about=""><dc:format>image/svg+xml</dc:format><dc:type rdf:resource="http://purl.org/dc/dcmitype/StillImage"/><dc:title/></cc:Work></rdf:RDF></metadata><defs id="defs7692"/><sodipodi:namedview pagecolor="#ffffff" bordercolor="#666666" borderopacity="1" objecttolerance="10" gridtolerance="10" guidetolerance="10" inkscape:pageopacity="0" inkscape:pageshadow="2" inkscape:window-width="640" inkscape:window-height="480" id="namedview7690" showgrid="false" inkscape:zoom="0.53387147" inkscape:cx="306.89374" inkscape:cy="272.53751" inkscape:window-x="640" inkscape:window-y="118" inkscape:window-maximized="0" inkscape:current-layer="g7696"/><g id="g7696" inkscape:groupmode="layer" inkscape:label="bc" transform="matrix(1.25,0,0,-1.25,0,545.075)"><g id="g7698" transform="scale(0.24,0.24)"><path d="m 1415.64,819.922 c 0,-6.242 24.91,-12.488 24.91,-21.852 l 0,-12.488 -9.34,-3.125 c 9.34,-21.848 12.46,-34.336 37.37,-34.336 12.46,0 21.8,-18.734 28.03,-28.098 15.57,0 15.57,12.485 34.26,12.485 12.46,-21.852 18.68,-28.098 34.26,-46.828 12.45,-21.852 12.45,-43.707 24.91,-65.559 15.57,0 15.57,9.363 31.14,9.363 9.34,-9.363 12.46,-21.851 18.69,-34.339 12.45,0 28.02,-6.247 43.6,-6.247 18.68,-28.093 90.31,-62.437 96.54,-99.902 0,-3.121 62.28,-37.461 65.4,-37.461 21.8,-34.34 3.11,-24.972 40.48,-43.707 0,-9.367 71.63,-65.558 71.63,-65.558 l 0,-43.707 c 0,-28.098 18.68,-43.708 24.91,-68.684 3.12,-9.367 21.8,-24.977 31.14,-24.977 3.12,-6.242 28.04,-21.851 31.15,-24.976 -199.31,-34.336 -669.56,-87.4143 -856.42,-78.047 -3.11,9.367 -9.34,12.488 -15.57,12.488 -3.11,-12.488 -3.11,-21.8553 -6.23,-34.3436 -15.57,0 3.12,31.2226 3.12,37.4646 -15.57,21.856 -18.69,12.489 -18.69,49.953 -24.91,0 -46.71,3.125 -71.63,6.243 -6.23,9.367 -31.14,34.339 -6.23,34.339 6.23,-3.121 15.58,-18.73 15.58,-21.851 31.14,0 -3.11,24.976 -6.23,28.098 l 0,40.585 c -3.12,6.247 -9.35,6.247 -12.46,3.122 0,-9.364 0,-21.852 0,-31.219 -9.34,-9.367 -56.06,-18.735 -31.14,24.976 -9.34,24.973 -24.92,-9.367 -28.03,-15.609 -12.454,31.219 -18.685,28.098 0,37.465 0,12.484 12.46,40.582 12.46,43.703 -9.35,0 -24.914,0 -24.914,-15.609 -6.231,-21.856 -9.344,-6.246 -15.574,3.121 -18.684,0 28.028,40.586 -12.457,18.734 0,-3.125 -6.227,-12.488 -12.457,-12.488 3.117,0 -40.485,31.219 -37.368,15.609 -6.23,-9.367 -49.828,-6.246 -49.828,12.488 18.684,6.243 46.711,3.122 46.711,28.098 -6.226,0 -37.367,-12.488 -46.711,-12.488 0,18.726 -12.457,18.726 -28.031,21.851 0,21.852 -9.34,12.489 -40.484,12.489 -3.114,-21.852 -68.512,-3.125 -49.824,18.73 0,0 40.484,-12.488 40.484,0 -40.484,12.488 -18.688,12.488 -59.172,12.488 -12.457,34.344 15.57,12.489 28.027,24.977 -15.57,3.121 -28.027,0 -28.027,15.609 6.23,3.121 18.688,3.121 28.027,3.121 0,18.731 -6.23,31.219 24.914,28.098 9.344,3.121 12.457,0 12.457,12.488 -21.8,0 -24.914,-6.246 -37.371,6.243 -24.914,0 0,-12.489 -31.14,-24.977 0,15.609 -9.344,15.609 -12.457,28.098 -3.117,12.488 28.027,43.711 34.258,46.832 31.14,0 21.796,37.461 59.167,15.605 0,24.977 -40.484,31.223 -12.457,46.832 15.571,24.977 21.801,24.977 9.344,34.344 -15.57,-28.102 -49.828,-49.953 -74.742,-65.566 -15.57,28.101 -12.457,71.808 -40.484,9.367 -6.231,0 18.683,65.562 18.683,71.804 -12.457,18.731 -6.226,6.243 -31.14,6.243 -9.344,12.488 -3.114,18.734 -3.114,40.589 -9.343,28.098 -49.828,18.731 -24.914,59.313 40.485,-40.582 18.684,0 62.282,-21.852 6.23,9.368 6.23,18.731 12.46,31.219 0,0 -84.085,-40.582 -65.402,3.121 0,21.856 3.117,18.735 12.457,53.074 -6.226,3.122 -9.34,15.61 -21.797,12.489 21.797,-24.977 -9.343,-43.707 -28.027,-53.074 -9.348,-12.489 -3.117,-21.856 -12.457,-34.344 -9.344,0 -34.258,31.222 -34.258,40.59 -18.687,18.73 -24.914,31.218 -24.914,53.074 12.457,15.605 31.141,6.238 31.141,28.094 -18.684,0 -24.914,-3.122 -40.485,-3.122 -9.343,12.489 0,21.856 -18.683,21.856 0,24.977 9.34,40.586 34.254,46.828 0,31.219 -6.227,21.852 12.461,31.219 24.91,0 31.14,15.612 9.339,15.612 -6.23,3.12 9.344,24.97 12.457,28.09 -18.687,6.25 -18.687,-12.48 -18.687,28.1 -3.109,12.49 0,34.34 9.344,43.71 0,18.73 0,40.58 -3.114,59.32 -28.027,0 -12.457,0 -34.257,15.61 -9.34,21.85 -34.254,24.97 -49.825,40.58 -34.257,34.34 -52.941,12.49 -62.289,90.54 0,15.61 -31.14,103.02 -49.824,131.12 0,40.58 -28.027,106.14 -52.941,134.24 -21.801,21.85 -34.258,18.73 -34.258,53.07 -34.258,40.59 -34.258,12.49 -34.258,59.32 6.23,9.36 -46.711,53.07 -43.598,53.07 -49.828,0 -52.945,-40.59 -84.086,-68.68 -21.8,0 -43.6012,-18.73 -71.6285,-15.61 0,12.49 12.4609,40.58 3.1172,53.07 -21.8008,21.85 -24.9141,49.95 -43.6016,71.81 -12.457,12.48 -12.457,24.97 -21.79685,34.34 C 453.344,1728.4 920.48,1678.45 1365.82,1712.79 l 49.82,-892.868 z M 300.746,832.41 c 0,37.461 -18.683,37.461 -3.113,78.051 12.457,0 21.797,-9.367 34.258,-9.367 0,-24.977 9.339,-9.367 28.023,-9.367 15.574,-12.489 3.117,-15.61 24.918,-15.61 12.457,0 15.57,15.61 24.914,15.61 3.113,-6.247 3.113,-15.61 3.113,-21.856 -3.113,-3.117 -18.687,-24.973 -18.687,-28.094 -15.57,-37.464 -9.34,-28.097 -9.34,-56.195 -9.344,-21.852 -9.344,-15.613 -28.027,-15.613 -3.117,-3.117 -6.231,-6.239 -9.344,-9.36 -12.457,0 -34.258,-6.246 -34.258,18.727 3.113,12.488 12.457,0 12.457,18.734 -9.344,9.364 -43.597,6.243 -24.914,34.34 l 0,0 z m 31.145,-87.414 c 9.339,0 15.57,3.125 24.914,6.246 15.57,0 24.91,9.367 37.367,9.367 0,-15.613 0,-12.488 3.117,-24.976 0,-9.367 3.113,-6.246 -6.23,-9.367 -6.227,3.121 -9.344,9.367 -15.571,9.367 -6.226,-9.367 -3.113,-15.61 0,-21.856 0,-9.367 6.227,-37.464 12.457,-40.586 0,-9.363 21.801,-21.851 21.801,-24.972 0,-6.246 3.113,-28.098 15.57,-31.223 9.34,-3.121 9.34,0 6.227,-15.609 -12.457,0 -9.34,0 -18.684,9.367 -6.23,0 -12.457,0 -12.457,6.242 -6.23,6.246 -6.23,15.613 -6.23,24.977 -28.027,37.461 -24.91,24.976 -52.942,78.05 12.458,6.243 6.231,15.61 -9.339,15.61 0,0 -3.118,9.363 0,9.363 l 0,0 z m 52.941,-21.851 c -3.117,-6.247 0,-9.368 3.113,-12.489 9.344,9.367 15.571,12.489 -3.113,12.489 l 0,0 z m 18.684,-40.586 c -3.114,0 -28.028,0 -6.227,-9.368 9.34,0 6.227,0 6.227,9.368 l 0,0 z m 112.113,162.339 c 12.457,0 28.027,21.856 9.344,21.856 -9.344,6.238 -21.801,0 -28.028,-6.246 0,-28.098 -3.117,-6.242 15.571,-6.242 0,-3.121 3.113,-9.368 3.113,-9.368 m 31.141,-43.707 c 0,6.243 3.117,21.856 -3.114,24.977 -6.226,12.488 0,15.609 12.457,0 0,-9.367 12.457,-12.488 15.575,-18.734 3.109,-28.098 18.683,-31.219 21.796,-40.582 0,-12.489 3.114,-15.61 -6.23,-28.098 -9.34,0 -9.34,6.242 -9.34,12.488 -3.117,12.488 -24.914,43.703 -31.144,49.949 l 0,0 z m 46.714,-71.804 c 0,-6.242 3.114,-6.242 6.231,-12.489 0,-12.488 6.226,-15.609 -6.231,-15.609 -6.23,9.367 -3.113,15.609 0,28.098 l 0,0 z m 34.258,34.343 c -3.113,-6.246 -12.461,-6.246 6.227,-12.488 12.457,18.727 -6.227,12.488 -6.227,12.488 l 0,0 z m -6.23,-40.585 0,18.73 c -15.571,3.121 -15.571,-18.73 0,-18.73 l 0,0 z m -15.571,-49.954 c 0,-15.605 9.34,-15.605 9.34,-28.093 l 0,0 c 0,-12.489 3.117,-15.614 12.461,-15.614 3.113,9.368 0,15.614 0,24.977 -9.344,9.367 -9.344,18.73 -21.801,18.73 l 0,0 z m 62.286,-6.242 c 3.113,12.485 3.113,24.973 3.113,37.461 -6.227,9.367 -21.801,40.586 -37.371,40.586 0,-6.242 3.113,-12.488 3.113,-15.609 -6.227,-6.242 -9.34,-9.364 -18.684,-15.61 0,-6.242 3.114,-12.488 9.344,-18.73 0,-9.367 -3.113,-9.367 -3.113,-21.856 9.34,0 6.226,-15.605 18.684,-15.605 9.343,24.973 3.113,31.215 18.683,24.973 0,-9.368 0,-9.368 -9.34,-12.485 0,-9.367 -3.117,-9.367 6.227,-15.613 0,0 15.57,6.246 9.344,12.488 l 0,0 z m 12.457,-9.363 c 0,-12.488 -3.114,-21.856 9.343,-21.856 3.114,6.243 3.114,15.61 3.114,21.856 0,6.242 -12.457,9.363 -12.457,0 l 0,0 z m -15.571,-12.488 c -6.23,-6.246 -15.574,-9.368 -21.8,-12.489 3.113,-3.125 28.027,-12.488 31.14,-12.488 3.117,12.488 -6.226,21.852 -9.34,24.977 l 0,0 z m 40.485,-49.953 c 0,-9.368 3.113,-18.735 12.457,-18.735 0,0 0,21.856 -3.117,21.856 -6.227,0 -6.227,-3.121 -9.34,-3.121 l 0,0 z m -18.688,-15.61 c -6.226,-3.125 -3.113,-15.609 0,-18.73 9.344,0 15.57,15.605 0,18.73 l 0,0 z m 56.059,6.242 c 0,0 -21.801,-40.582 -18.688,-37.461 9.344,3.122 12.457,3.122 15.574,12.489 3.114,6.246 18.684,18.73 28.028,18.73 9.34,6.242 9.34,6.242 9.34,12.485 -12.453,0 -21.801,-6.243 -34.254,-6.243 l 0,0 z m -43.602,-34.339 c -6.226,-3.122 -12.457,-12.489 -3.113,-18.731 0,-12.488 9.344,-15.609 9.344,-3.121 0,3.121 3.113,9.363 6.226,9.363 0,3.125 0,9.367 0,12.489 -3.113,0 -6.226,0 -12.457,0 l 0,0 z m -6.226,-56.196 c 0,-15.609 0,-21.851 9.339,-31.219 9.344,0 6.231,6.243 6.231,15.61 9.344,-6.242 -15.57,43.707 -15.57,15.609 l 0,0 z M 823.938,373.484 c -18.684,9.368 -12.458,9.368 -24.915,3.125 6.231,-9.363 12.457,-12.484 28.028,-12.484 3.113,3.121 0,9.359 -3.113,9.359 l 0,0 z m 18.683,-9.359 c -18.683,0 -15.57,-9.367 -9.34,-18.734 3.114,0 12.457,0 18.684,0 12.457,15.609 -6.227,21.855 -9.344,18.734 l 0,0 z m -161.937,21.848 c -6.231,-9.364 -18.688,-6.243 -21.801,-9.364 0,-9.363 18.687,-31.218 21.801,-40.586 15.57,0 6.226,-3.121 31.14,-3.121 15.574,6.246 12.457,12.489 28.031,3.121 3.114,-24.972 12.458,-12.484 -3.117,-31.218 -12.457,15.609 -12.457,12.488 -31.14,12.488 0,-3.121 0,-12.488 3.113,-15.609 0,-12.489 -9.344,-15.61 -9.344,-31.219 3.113,0 40.488,18.73 40.488,-3.121 18.684,0 24.915,9.363 43.598,9.363 -6.23,-3.117 -21.801,-24.973 -12.457,-34.34 15.57,0 6.227,6.246 24.914,0 6.227,3.121 0,21.856 0,24.977 6.227,0 15.57,0 15.57,-9.367 0,0 3.114,-15.61 -6.226,-12.489 0,-6.242 28.027,-34.34 28.027,-34.34 6.231,0 31.141,-3.125 18.684,-12.488 -21.801,0 -24.914,-6.246 -24.914,-24.976 l 0,-3.118 c 15.57,0 6.23,6.243 28.027,3.118 9.344,0 12.457,-3.118 18.688,-3.118 3.113,-15.613 6.23,18.727 3.113,-18.734 12.457,0 9.344,-3.121 15.574,3.121 9.34,-12.488 9.34,-12.488 9.34,-31.219 0,0 -9.34,0 -9.34,-3.121 6.227,-37.4646 52.942,-15.613 74.738,-12.488 6.231,6.242 9.344,21.852 21.801,21.852 0,-12.489 -6.23,-31.2192 -12.457,-43.7075 -37.371,3.1211 -24.914,-24.9726 -18.687,-24.9726 24.914,0 62.292,-34.3438 87.202,-34.3438 21.8,-6.2422 49.83,-18.73044 74.74,-24.97654 0,3.125 0,9.36724 0,15.61324 9.34,15.6094 6.23,9.3633 6.23,28.0977 -9.34,12.4883 -15.57,37.4609 -31.14,46.8242 -6.23,6.2461 -18.69,3.125 -24.92,3.125 -6.23,9.3633 0,21.8513 -3.11,31.2183 -15.57,6.247 -37.37,24.977 -52.95,34.344 -3.11,0 -21.795,12.485 -24.908,12.485 0,9.367 -9.344,31.218 -9.344,40.586 l 0,3.121 c -9.343,3.121 -15.57,12.488 -21.8,18.734 0,9.363 -9.34,12.488 -9.34,18.73 18.683,0 12.457,21.852 6.226,34.34 -9.339,6.243 -12.457,0 -12.457,-9.367 -9.339,0 -12.457,18.735 -18.683,21.856 -28.028,3.121 -24.914,-3.121 -43.598,12.488 -15.574,0 -34.258,0 -49.832,0 -15.57,0 -65.394,37.465 -77.851,46.828 -24.915,18.73 -40.489,24.973 -71.629,24.973 l 0,0 z M 1119.79,95.6367 c -3.11,-9.3672 -3.11,-12.4883 -3.11,-18.7344 3.11,-3.1171 9.34,-6.2382 12.45,-6.2382 0,3.1211 0,9.3593 0,12.4843 3.12,-6.2461 -9.34,18.7306 -9.34,12.4883 l 0,0 z M 979.648,289.195 c 6.231,-12.488 3.114,-12.488 15.571,-12.488 0,12.488 -3.114,9.367 -15.571,12.488 l 0,0 z m -31.14,18.731 c 0,-3.121 -3.113,-9.363 9.34,-12.488 3.117,9.367 3.117,12.488 -9.34,12.488 l 0,0 z M 851.965,164.32 c 0,-6.242 0,-12.488 6.23,-18.73 3.114,3.121 6.227,0 9.34,3.121 0,12.488 -6.226,15.609 -15.57,15.609 l 0,0 z M 649.539,801.191 c -6.226,3.122 -12.457,3.122 -18.684,-3.121 -3.113,-6.246 -6.226,-12.488 0,-18.734 3.114,-3.121 9.344,0 15.571,6.246 6.23,6.242 6.23,12.488 3.113,15.609 l 0,0 z m -118.34,18.731 c 3.114,0 6.231,-3.121 9.344,-9.363 3.113,-9.368 3.113,-15.614 -3.113,-15.614 -3.117,-3.121 -6.231,3.125 -9.344,9.368 -3.113,6.246 -3.113,12.488 3.113,15.609 l 0,0 z m -18.683,-18.731 c 9.339,9.368 31.14,-31.222 40.484,-34.339 9.34,0 0,3.117 3.113,0 -9.343,-9.368 18.684,-24.977 6.227,-34.344 -3.113,-3.121 -24.91,15.613 -37.367,31.222 -12.457,12.485 -9.344,15.606 -9.344,24.973 -3.113,6.242 -12.457,3.121 -3.113,12.488 l 0,0 z m -18.688,99.903 c 6.227,0 9.344,-6.246 9.344,-12.489 0,-6.246 -3.117,-12.488 -9.344,-12.488 -3.113,0 -6.23,6.242 -6.23,12.488 0,6.243 3.117,12.489 6.23,12.489 l 0,0 z m 6.227,53.074 c 3.117,-3.121 3.117,-9.367 0,-12.488 -3.11,-6.242 -9.34,-6.242 -12.457,-3.125 -3.11,0 -3.11,6.246 0,12.492 3.117,3.121 9.347,6.242 12.457,3.121 l 0,0 z M 553,1007.24 c -3.113,3.12 -9.344,-3.12 -15.57,-12.49 -6.231,-9.367 -9.344,-18.73 -3.117,-21.855 6.23,-3.118 12.457,3.125 18.687,12.488 6.227,9.367 6.227,18.737 0,21.857 l 0,0 z M 792.797,233 c 6.226,3.125 15.57,-3.121 18.683,-12.488 6.231,-12.489 6.231,-21.852 0,-24.977 -6.226,-3.121 -12.457,3.125 -18.683,15.613 -6.231,9.364 -6.231,18.731 0,21.852 l 0,0 z m -351.91,359.02 c 3.117,0 3.117,-6.243 3.117,-12.485 -3.117,-9.363 -6.231,-12.484 -9.348,-12.484 -3.113,0 -3.113,6.238 -3.113,12.484 3.113,9.363 6.23,15.61 9.344,12.485 l 0,0 z" style="fill:none;stroke:#30312d;stroke-opacity:1;stroke-width:4.16667;stroke-linecap:square;stroke-linejoin:miter;stroke-miterlimit:10;stroke-dasharray:none" id="path7700"/></g></g></svg>